<?xml version="1.0" encoding="UTF-8" standalone="no"?><!DOCTYPE svg PUBLIC "-//W3C//DTD SVG 1.1//EN" "http://www.w3.org/Graphics/SVG/1.1/DTD/svg11.dtd"><svg width="100%" height="100%" viewBox="0 0 512 512" version="1.1" xmlns="http://www.w3.org/2000/svg" xmlns:xlink="http://www.w3.org/1999/xlink" xml:space="preserve" xmlns:serif="http://www.serif.com/" style="fill-rule:evenodd;clip-rule:evenodd;stroke-linejoin:round;stroke-miterlimit:2;"><rect x="0" y="0" width="512" height="512" style="fill:#ffddbf;"/><g><clipPath id="_clip1"><rect id="Fire.svg" x="64.348" y="26.003" width="383.303" height="383.303"/></clipPath><g clip-path="url(#_clip1)"><path d="M324.64,78.044c62.248,27.817 102.516,89.916 102.516,158.097c0,94.959 -78.108,173.111 -173.066,173.165c-0.005,-0 -0.009,-0 -0.013,-0c-94.972,-0 -173.122,-78.151 -173.122,-173.123c-0,-44.572 17.213,-87.467 48.025,-119.674c16.145,22.567 37.459,40.945 62.156,53.594c0.875,-56.106 26.759,-108.989 70.529,-144.1c16.509,22.141 38.102,39.992 62.954,52.041l0.021,0Z" style="fill:#f43800;fill-rule:nonzero;"/><path d="M304.262,170.25c44.278,19.786 72.921,63.958 72.921,112.456c-0,67.544 -55.559,123.134 -123.103,123.172c-0.003,-0 -0.006,-0 -0.009,-0c-67.554,-0 -123.143,-55.589 -123.143,-123.143c0,-31.704 12.244,-62.215 34.161,-85.125c11.484,16.052 26.645,29.125 44.212,38.122c0.622,-39.908 19.033,-77.524 50.167,-102.499c11.743,15.749 27.102,28.446 44.779,37.017l0.015,0Z" style="fill:#ff6410;fill-rule:nonzero;"/><path d="M253.971,400.738c0.006,-0 0.12,-0 0.169,-0c49.632,-0 90.472,-40.841 90.472,-90.472c0,-45.196 -33.868,-83.808 -78.679,-89.7c-24.907,22.289 -41.327,52.544 -46.442,85.574c-18.586,-4.554 -36.08,-12.764 -51.46,-24.149c-3.002,9.124 -4.532,18.669 -4.532,28.275c-0,49.631 40.84,90.472 90.472,90.472Z" style="fill:#ffb855;fill-rule:nonzero;"/></g><g transform="matrix(65.03,0,0,65.03,479.62,482.028)"></g><text x="32.189px" y="482.028px" style="font-family:'RobotoSlab-Black', 'Roboto Slab';font-weight:900;font-size:65.03px;">&lt;XML Cach<tspan x="388.14px " y="482.028px ">e</tspan>/&gt;</text></g></svg>